<?xml version="1.0" encoding="UTF-8"?>
<svg xmlns="http://www.w3.org/2000/svg" id="Layer_1" data-name="Layer 1" viewBox="0 0 24 24">
  <path d="M18.57,0H5.577C3.096,0,1.077,2.019,1.077,4.5V20.985c0,1.203,.859,2.482,1.915,2.851,.309,.108,.627,.161,.94,.161,.734,0,1.448-.288,1.99-.831l6.151-6.119,6.08,6.048c.807,.804,1.982,1.098,2.997,.743,1.167-.406,1.92-1.461,1.92-2.688V4.5c0-2.481-2.019-4.5-4.5-4.5Zm3.5,21.15c0,.807-.479,1.476-1.249,1.743-.655,.229-1.424,.027-1.963-.508l-6.433-6.398c-.195-.193-.51-.193-.705,0l-6.504,6.471c-.508,.508-1.215,.67-1.895,.435-.651-.228-1.244-1.137-1.244-1.907V4.5c0-1.93,1.57-3.5,3.5-3.5h12.993c1.93,0,3.5,1.57,3.5,3.5V21.15Z"/>
</svg>
