<?xml version="1.0" encoding="UTF-8"?>
<svg xmlns="http://www.w3.org/2000/svg" id="Layer_1" data-name="Layer 1" viewBox="0 0 24 24">
  <path d="M20,0H3C1.07,0-.5,1.57-.5,3.5v13c0,1.93,1.57,3.5,3.5,3.5h3.606l3.897,3.283c.286,.254,.645,.38,1.001,.38,.353,0,.703-.123,.979-.368l3.985-3.295h3.532c1.93,0,3.5-1.57,3.5-3.5V3.5c0-1.93-1.57-3.5-3.5-3.5Zm2.5,16.5c0,1.379-1.121,2.5-2.5,2.5h-3.712c-.116,0-.229,.041-.318,.114l-4.137,3.421c-.19,.171-.476,.169-.675-.009l-4.047-3.409c-.09-.075-.205-.117-.322-.117H3c-1.378,0-2.5-1.121-2.5-2.5V3.5C.5,2.121,1.622,1,3,1H20c1.379,0,2.5,1.121,2.5,2.5v13ZM5,6.5c0-.276,.224-.5,.5-.5h7c.276,0,.5,.224,.5,.5s-.224,.5-.5,.5H5.5c-.276,0-.5-.224-.5-.5Zm14,4c0,.276-.224,.5-.5,.5H5.5c-.276,0-.5-.224-.5-.5s.224-.5,.5-.5h13c.276,0,.5,.224,.5,.5Zm0,4c0,.276-.224,.5-.5,.5H5.5c-.276,0-.5-.224-.5-.5s.224-.5,.5-.5h13c.276,0,.5,.224,.5,.5Z"/>
</svg>
