<svg id="Layer_1" viewBox="0 0 24 24" xmlns="http://www.w3.org/2000/svg" data-name="Layer 1"><path d="m20 11.5v8c0 2.481-2.019 4.5-4.5 4.5h-11c-2.481 0-4.5-2.019-4.5-4.5v-15c0-2.481 2.019-4.5 4.5-4.5h11c.38 0 .759.048 1.124.142.268.069.429.341.36.609-.068.267-.345.428-.608.36-.285-.073-.58-.11-.876-.11h-11c-1.93 0-3.5 1.57-3.5 3.5v15c0 1.93 1.57 3.5 3.5 3.5h11c1.93 0 3.5-1.57 3.5-3.5v-8.001c0-.276.224-.5.5-.5s.5.224.5.5zm-8.5 6.5h4c.276 0 .5-.224.5-.5s-.224-.5-.5-.5h-4c-.276 0-.5.224-.5.5s.224.5.5.5zm12.5-15.5c0 .668-.26 1.296-.732 1.768l-6.707 6.707c-.66.661-1.539 1.025-2.475 1.025h-1.586c-.276 0-.5-.224-.5-.5v-1.586c0-.921.374-1.823 1.025-2.475l6.707-6.707c.975-.975 2.561-.975 3.535 0 .473.472.732 1.1.732 1.768zm-1 0c0-.401-.156-.777-.439-1.061-.584-.585-1.537-.585-2.121 0l-6.707 6.707c-.466.465-.732 1.11-.732 1.768v1.086h1.086c.668 0 1.296-.26 1.768-.732l6.707-6.707c.283-.283.439-.66.439-1.061zm-13.854 12.646-2.589 2.589c-.344.343-.89.354-1.242.034l-1.471-1.403c-.199-.19-.517-.184-.706.017-.191.199-.184.516.017.706l1.478 1.41c.365.336.826.502 1.286.502.487 0 .974-.187 1.346-.559l2.589-2.589c.195-.195.195-.512 0-.707s-.512-.195-.707 0zm.707-5c-.195-.195-.512-.195-.707 0l-2.589 2.589c-.344.342-.89.355-1.242.034l-1.471-1.403c-.199-.189-.517-.183-.706.017-.191.2-.184.516.017.707l1.478 1.41c.365.336.826.502 1.286.502.487 0 .974-.187 1.346-.559l2.589-2.589c.195-.195.195-.512 0-.707zm0-5c-.195-.195-.512-.195-.707 0l-2.589 2.589c-.344.343-.893.355-1.241.034l-1.471-1.404c-.201-.19-.518-.183-.707.017-.191.2-.184.516.016.707l1.479 1.411c.366.335.826.501 1.286.501.487 0 .974-.187 1.346-.559l2.589-2.589c.195-.195.195-.512 0-.707z"/></svg>